<mxfile host="app.diagrams.net" modified="2020-09-18T08:42:46.048Z" agent="5.0 (Windows NT 10.0; Win64; x64) AppleWebKit/537.36 (KHTML, like Gecko) Chrome/85.0.4183.102 Safari/537.36" etag="lf_GTpQ-8iqJnYVFSB-x" version="13.7.3" type="github">
  <diagram id="C5RBs43oDa-KdzZeNtuy" name="Page-1">
    <mxGraphModel dx="1038" dy="1749" grid="1" gridSize="10" guides="1" tooltips="1" connect="1" arrows="1" fold="1" page="1" pageScale="1" pageWidth="827" pageHeight="1169" math="0" shadow="0">
      <root>
        <mxCell id="WIyWlLk6GJQsqaUBKTNV-0" />
        <mxCell id="WIyWlLk6GJQsqaUBKTNV-1" parent="WIyWlLk6GJQsqaUBKTNV-0" />
        <mxCell id="wz5FfJA9ymAUxzdKkV_o-2" value="" style="line;strokeWidth=2;direction=south;html=1;" vertex="1" parent="WIyWlLk6GJQsqaUBKTNV-1">
          <mxGeometry x="140" y="-360" width="10" height="2360" as="geometry" />
        </mxCell>
        <mxCell id="wz5FfJA9ymAUxzdKkV_o-3" value="" style="line;strokeWidth=2;direction=south;html=1;" vertex="1" parent="WIyWlLk6GJQsqaUBKTNV-1">
          <mxGeometry x="320" y="-360" width="10" height="2360" as="geometry" />
        </mxCell>
        <mxCell id="wz5FfJA9ymAUxzdKkV_o-4" value="" style="line;strokeWidth=2;direction=south;html=1;" vertex="1" parent="WIyWlLk6GJQsqaUBKTNV-1">
          <mxGeometry x="480" y="-360" width="10" height="2360" as="geometry" />
        </mxCell>
        <mxCell id="wz5FfJA9ymAUxzdKkV_o-5" value="核心" style="text;html=1;strokeColor=none;fillColor=none;align=center;verticalAlign=middle;whiteSpace=wrap;rounded=0;fontSize=15;" vertex="1" parent="WIyWlLk6GJQsqaUBKTNV-1">
          <mxGeometry x="50" y="-360" width="40" height="20" as="geometry" />
        </mxCell>
        <mxCell id="wz5FfJA9ymAUxzdKkV_o-6" value="核赔系统" style="text;html=1;strokeColor=none;fillColor=none;align=center;verticalAlign=middle;whiteSpace=wrap;rounded=0;fontSize=15;" vertex="1" parent="WIyWlLk6GJQsqaUBKTNV-1">
          <mxGeometry x="200" y="-360" width="70" height="20" as="geometry" />
        </mxCell>
        <mxCell id="wz5FfJA9ymAUxzdKkV_o-7" value="公众号" style="text;html=1;strokeColor=none;fillColor=none;align=center;verticalAlign=middle;whiteSpace=wrap;rounded=0;fontSize=15;" vertex="1" parent="WIyWlLk6GJQsqaUBKTNV-1">
          <mxGeometry x="375" y="-360" width="50" height="20" as="geometry" />
        </mxCell>
        <mxCell id="wz5FfJA9ymAUxzdKkV_o-9" value="小程序" style="text;html=1;strokeColor=none;fillColor=none;align=center;verticalAlign=middle;whiteSpace=wrap;rounded=0;fontSize=15;" vertex="1" parent="WIyWlLk6GJQsqaUBKTNV-1">
          <mxGeometry x="535" y="-360" width="50" height="20" as="geometry" />
        </mxCell>
        <mxCell id="wz5FfJA9ymAUxzdKkV_o-11" value="" style="line;strokeWidth=2;direction=south;html=1;" vertex="1" parent="WIyWlLk6GJQsqaUBKTNV-1">
          <mxGeometry x="650" y="-360" width="10" height="2360" as="geometry" />
        </mxCell>
        <mxCell id="wz5FfJA9ymAUxzdKkV_o-12" value="影像" style="text;html=1;strokeColor=none;fillColor=none;align=center;verticalAlign=middle;whiteSpace=wrap;rounded=0;fontSize=15;" vertex="1" parent="WIyWlLk6GJQsqaUBKTNV-1">
          <mxGeometry x="717.5" y="-360" width="50" height="20" as="geometry" />
        </mxCell>
        <mxCell id="wz5FfJA9ymAUxzdKkV_o-16" style="edgeStyle=orthogonalEdgeStyle;rounded=0;orthogonalLoop=1;jettySize=auto;html=1;exitX=1;exitY=0.5;exitDx=0;exitDy=0;entryX=0;entryY=0.5;entryDx=0;entryDy=0;fontSize=15;" edge="1" parent="WIyWlLk6GJQsqaUBKTNV-1" source="wz5FfJA9ymAUxzdKkV_o-13" target="wz5FfJA9ymAUxzdKkV_o-15">
          <mxGeometry relative="1" as="geometry" />
        </mxCell>
        <mxCell id="wz5FfJA9ymAUxzdKkV_o-13" value="核心下发任务" style="rounded=0;whiteSpace=wrap;html=1;fontSize=15;fillColor=#ffe6cc;strokeColor=#d79b00;labelBackgroundColor=none;fontColor=#339999;" vertex="1" parent="WIyWlLk6GJQsqaUBKTNV-1">
          <mxGeometry x="20" y="-200" width="100" height="40" as="geometry" />
        </mxCell>
        <mxCell id="wz5FfJA9ymAUxzdKkV_o-127" style="edgeStyle=orthogonalEdgeStyle;rounded=0;orthogonalLoop=1;jettySize=auto;html=1;exitX=0.5;exitY=1;exitDx=0;exitDy=0;entryX=0.5;entryY=0;entryDx=0;entryDy=0;startArrow=none;startFill=0;endArrow=classic;endFill=1;fontSize=15;" edge="1" parent="WIyWlLk6GJQsqaUBKTNV-1" source="wz5FfJA9ymAUxzdKkV_o-15" target="wz5FfJA9ymAUxzdKkV_o-17">
          <mxGeometry relative="1" as="geometry" />
        </mxCell>
        <mxCell id="wz5FfJA9ymAUxzdKkV_o-15" value="接收核赔任务" style="rounded=0;whiteSpace=wrap;html=1;fontSize=15;fillColor=#ffe6cc;strokeColor=#d79b00;fontColor=#339999;" vertex="1" parent="WIyWlLk6GJQsqaUBKTNV-1">
          <mxGeometry x="185" y="-200" width="100" height="40" as="geometry" />
        </mxCell>
        <mxCell id="wz5FfJA9ymAUxzdKkV_o-18" value="加入个人池" style="edgeStyle=orthogonalEdgeStyle;rounded=0;orthogonalLoop=1;jettySize=auto;html=1;exitX=0.5;exitY=1;exitDx=0;exitDy=0;fontSize=15;fontColor=#339999;" edge="1" parent="WIyWlLk6GJQsqaUBKTNV-1" source="wz5FfJA9ymAUxzdKkV_o-17">
          <mxGeometry relative="1" as="geometry">
            <mxPoint x="235" y="-40" as="targetPoint" />
          </mxGeometry>
        </mxCell>
        <mxCell id="wz5FfJA9ymAUxzdKkV_o-17" value="核赔公共池" style="rounded=0;whiteSpace=wrap;html=1;fontSize=15;fillColor=#ffe6cc;strokeColor=#d79b00;fontColor=#339999;" vertex="1" parent="WIyWlLk6GJQsqaUBKTNV-1">
          <mxGeometry x="185" y="-130" width="100" height="40" as="geometry" />
        </mxCell>
        <mxCell id="wz5FfJA9ymAUxzdKkV_o-77" style="edgeStyle=orthogonalEdgeStyle;rounded=0;orthogonalLoop=1;jettySize=auto;html=1;exitX=0.5;exitY=1;exitDx=0;exitDy=0;entryX=0.5;entryY=0;entryDx=0;entryDy=0;startArrow=none;startFill=0;endArrow=classic;endFill=1;fontSize=15;" edge="1" parent="WIyWlLk6GJQsqaUBKTNV-1" source="wz5FfJA9ymAUxzdKkV_o-19" target="wz5FfJA9ymAUxzdKkV_o-76">
          <mxGeometry relative="1" as="geometry" />
        </mxCell>
        <mxCell id="wz5FfJA9ymAUxzdKkV_o-19" value="核赔个人池" style="rounded=0;whiteSpace=wrap;html=1;fontSize=15;fillColor=#ffe6cc;strokeColor=#d79b00;fontColor=#339999;" vertex="1" parent="WIyWlLk6GJQsqaUBKTNV-1">
          <mxGeometry x="185" y="-40" width="100" height="40" as="geometry" />
        </mxCell>
        <mxCell id="wz5FfJA9ymAUxzdKkV_o-28" style="edgeStyle=orthogonalEdgeStyle;rounded=0;orthogonalLoop=1;jettySize=auto;html=1;exitX=0.5;exitY=1;exitDx=0;exitDy=0;entryX=0.5;entryY=0;entryDx=0;entryDy=0;fontSize=15;" edge="1" parent="WIyWlLk6GJQsqaUBKTNV-1" source="wz5FfJA9ymAUxzdKkV_o-21" target="wz5FfJA9ymAUxzdKkV_o-26">
          <mxGeometry relative="1" as="geometry" />
        </mxCell>
        <mxCell id="wz5FfJA9ymAUxzdKkV_o-21" value="代理人核赔任务列表" style="rounded=0;whiteSpace=wrap;html=1;fontSize=15;fillColor=#ffe6cc;strokeColor=#d79b00;labelBackgroundColor=none;fontColor=#339999;" vertex="1" parent="WIyWlLk6GJQsqaUBKTNV-1">
          <mxGeometry x="361.25" width="80" height="40" as="geometry" />
        </mxCell>
        <mxCell id="wz5FfJA9ymAUxzdKkV_o-23" style="edgeStyle=orthogonalEdgeStyle;rounded=0;orthogonalLoop=1;jettySize=auto;html=1;exitX=0.5;exitY=1;exitDx=0;exitDy=0;entryX=0.5;entryY=0;entryDx=0;entryDy=0;fontSize=15;" edge="1" parent="WIyWlLk6GJQsqaUBKTNV-1" source="wz5FfJA9ymAUxzdKkV_o-22" target="wz5FfJA9ymAUxzdKkV_o-21">
          <mxGeometry relative="1" as="geometry" />
        </mxCell>
        <mxCell id="wz5FfJA9ymAUxzdKkV_o-22" value="代理人登录公众号" style="rounded=1;whiteSpace=wrap;html=1;fontSize=15;fillColor=#ffe6cc;strokeColor=#d79b00;fontColor=#339999;" vertex="1" parent="WIyWlLk6GJQsqaUBKTNV-1">
          <mxGeometry x="362.5" y="-80" width="77.5" height="40" as="geometry" />
        </mxCell>
        <mxCell id="wz5FfJA9ymAUxzdKkV_o-30" style="edgeStyle=orthogonalEdgeStyle;rounded=0;orthogonalLoop=1;jettySize=auto;html=1;exitX=0.5;exitY=1;exitDx=0;exitDy=0;entryX=0.5;entryY=0;entryDx=0;entryDy=0;fontSize=15;" edge="1" parent="WIyWlLk6GJQsqaUBKTNV-1" source="wz5FfJA9ymAUxzdKkV_o-26" target="wz5FfJA9ymAUxzdKkV_o-29">
          <mxGeometry relative="1" as="geometry" />
        </mxCell>
        <mxCell id="wz5FfJA9ymAUxzdKkV_o-26" value="选择任务预约时间" style="rounded=0;whiteSpace=wrap;html=1;fontSize=15;fillColor=#ffe6cc;strokeColor=#d79b00;fontColor=#339999;" vertex="1" parent="WIyWlLk6GJQsqaUBKTNV-1">
          <mxGeometry x="361.25" y="80" width="80" height="40" as="geometry" />
        </mxCell>
        <mxCell id="wz5FfJA9ymAUxzdKkV_o-33" style="edgeStyle=orthogonalEdgeStyle;rounded=0;orthogonalLoop=1;jettySize=auto;html=1;exitX=0;exitY=0.5;exitDx=0;exitDy=0;entryX=1;entryY=0.5;entryDx=0;entryDy=0;fontSize=15;" edge="1" parent="WIyWlLk6GJQsqaUBKTNV-1" source="wz5FfJA9ymAUxzdKkV_o-29" target="wz5FfJA9ymAUxzdKkV_o-32">
          <mxGeometry relative="1" as="geometry" />
        </mxCell>
        <mxCell id="wz5FfJA9ymAUxzdKkV_o-36" style="edgeStyle=orthogonalEdgeStyle;rounded=0;orthogonalLoop=1;jettySize=auto;html=1;exitX=0.5;exitY=1;exitDx=0;exitDy=0;entryX=0.5;entryY=0;entryDx=0;entryDy=0;fontSize=15;" edge="1" parent="WIyWlLk6GJQsqaUBKTNV-1" source="wz5FfJA9ymAUxzdKkV_o-29">
          <mxGeometry relative="1" as="geometry">
            <mxPoint x="401.25" y="230" as="targetPoint" />
          </mxGeometry>
        </mxCell>
        <mxCell id="wz5FfJA9ymAUxzdKkV_o-29" value="预约时间通知" style="rounded=0;whiteSpace=wrap;html=1;fontSize=15;fillColor=#ffe6cc;strokeColor=#d79b00;fontColor=#339999;" vertex="1" parent="WIyWlLk6GJQsqaUBKTNV-1">
          <mxGeometry x="362.5" y="155" width="80" height="40" as="geometry" />
        </mxCell>
        <mxCell id="wz5FfJA9ymAUxzdKkV_o-32" value="通知对应的核保人员" style="rounded=0;whiteSpace=wrap;html=1;fontSize=15;dashed=1;fillColor=#fff2cc;strokeColor=#d6b656;fontColor=#339999;" vertex="1" parent="WIyWlLk6GJQsqaUBKTNV-1">
          <mxGeometry x="185" y="155" width="100" height="40" as="geometry" />
        </mxCell>
        <mxCell id="wz5FfJA9ymAUxzdKkV_o-41" value="是" style="edgeStyle=orthogonalEdgeStyle;rounded=0;orthogonalLoop=1;jettySize=auto;html=1;exitX=0.5;exitY=1;exitDx=0;exitDy=0;entryX=0.5;entryY=0;entryDx=0;entryDy=0;fontSize=15;fontColor=#339999;" edge="1" parent="WIyWlLk6GJQsqaUBKTNV-1" source="wz5FfJA9ymAUxzdKkV_o-37" target="wz5FfJA9ymAUxzdKkV_o-39">
          <mxGeometry relative="1" as="geometry" />
        </mxCell>
        <mxCell id="wz5FfJA9ymAUxzdKkV_o-42" value="否" style="edgeStyle=orthogonalEdgeStyle;rounded=0;orthogonalLoop=1;jettySize=auto;html=1;exitX=1;exitY=0.5;exitDx=0;exitDy=0;entryX=1;entryY=0.5;entryDx=0;entryDy=0;fontSize=15;fontColor=#339999;" edge="1" parent="WIyWlLk6GJQsqaUBKTNV-1" source="wz5FfJA9ymAUxzdKkV_o-37" target="wz5FfJA9ymAUxzdKkV_o-40">
          <mxGeometry relative="1" as="geometry" />
        </mxCell>
        <mxCell id="wz5FfJA9ymAUxzdKkV_o-37" value="用户是否关注了公众号" style="rhombus;whiteSpace=wrap;html=1;fontSize=15;fillColor=#f8cecc;strokeColor=#b85450;fontColor=#339999;" vertex="1" parent="WIyWlLk6GJQsqaUBKTNV-1">
          <mxGeometry x="360" y="230" width="80" height="90" as="geometry" />
        </mxCell>
        <mxCell id="wz5FfJA9ymAUxzdKkV_o-51" style="edgeStyle=orthogonalEdgeStyle;rounded=0;orthogonalLoop=1;jettySize=auto;html=1;exitX=0;exitY=0.5;exitDx=0;exitDy=0;startArrow=none;startFill=0;endArrow=none;endFill=0;fontSize=15;" edge="1" parent="WIyWlLk6GJQsqaUBKTNV-1" source="wz5FfJA9ymAUxzdKkV_o-39">
          <mxGeometry relative="1" as="geometry">
            <mxPoint x="410" y="500" as="targetPoint" />
            <Array as="points">
              <mxPoint x="340" y="390" />
              <mxPoint x="340" y="500" />
            </Array>
          </mxGeometry>
        </mxCell>
        <mxCell id="wz5FfJA9ymAUxzdKkV_o-39" value="发送微信通知客户" style="rounded=0;whiteSpace=wrap;html=1;fontSize=15;fillColor=#ffe6cc;strokeColor=#d79b00;fontColor=#339999;" vertex="1" parent="WIyWlLk6GJQsqaUBKTNV-1">
          <mxGeometry x="360" y="370" width="80" height="40" as="geometry" />
        </mxCell>
        <mxCell id="wz5FfJA9ymAUxzdKkV_o-49" style="edgeStyle=orthogonalEdgeStyle;rounded=0;orthogonalLoop=1;jettySize=auto;html=1;exitX=0.5;exitY=1;exitDx=0;exitDy=0;entryX=0;entryY=0.5;entryDx=0;entryDy=0;startArrow=none;startFill=0;endArrow=classic;endFill=1;fontSize=15;" edge="1" parent="WIyWlLk6GJQsqaUBKTNV-1" source="wz5FfJA9ymAUxzdKkV_o-40" target="wz5FfJA9ymAUxzdKkV_o-43">
          <mxGeometry relative="1" as="geometry">
            <Array as="points">
              <mxPoint x="401" y="460" />
              <mxPoint x="340" y="460" />
              <mxPoint x="340" y="500" />
              <mxPoint x="500" y="500" />
              <mxPoint x="500" y="-160" />
            </Array>
          </mxGeometry>
        </mxCell>
        <mxCell id="wz5FfJA9ymAUxzdKkV_o-40" value="发送短信通知客户" style="rounded=0;whiteSpace=wrap;html=1;fontSize=15;fillColor=#ffe6cc;strokeColor=#d79b00;fontColor=#339999;" vertex="1" parent="WIyWlLk6GJQsqaUBKTNV-1">
          <mxGeometry x="361.25" y="440" width="80" height="40" as="geometry" />
        </mxCell>
        <mxCell id="wz5FfJA9ymAUxzdKkV_o-53" style="edgeStyle=orthogonalEdgeStyle;rounded=0;orthogonalLoop=1;jettySize=auto;html=1;exitX=0.5;exitY=1;exitDx=0;exitDy=0;entryX=0.5;entryY=0;entryDx=0;entryDy=0;startArrow=none;startFill=0;endArrow=classic;endFill=1;fontSize=15;" edge="1" parent="WIyWlLk6GJQsqaUBKTNV-1" source="wz5FfJA9ymAUxzdKkV_o-43" target="wz5FfJA9ymAUxzdKkV_o-52">
          <mxGeometry relative="1" as="geometry" />
        </mxCell>
        <mxCell id="wz5FfJA9ymAUxzdKkV_o-43" value="进入小程序" style="rounded=0;whiteSpace=wrap;html=1;fontSize=15;fillColor=#ffe6cc;strokeColor=#d79b00;fontColor=#339999;" vertex="1" parent="WIyWlLk6GJQsqaUBKTNV-1">
          <mxGeometry x="520" y="-180" width="80" height="40" as="geometry" />
        </mxCell>
        <mxCell id="wz5FfJA9ymAUxzdKkV_o-70" style="edgeStyle=orthogonalEdgeStyle;rounded=0;orthogonalLoop=1;jettySize=auto;html=1;exitX=0.5;exitY=1;exitDx=0;exitDy=0;entryX=0.5;entryY=0;entryDx=0;entryDy=0;startArrow=none;startFill=0;endArrow=classic;endFill=1;fontSize=15;" edge="1" parent="WIyWlLk6GJQsqaUBKTNV-1" source="wz5FfJA9ymAUxzdKkV_o-52" target="wz5FfJA9ymAUxzdKkV_o-56">
          <mxGeometry relative="1" as="geometry" />
        </mxCell>
        <mxCell id="wz5FfJA9ymAUxzdKkV_o-52" value="获取验证码" style="rounded=0;whiteSpace=wrap;html=1;fontSize=15;fillColor=#ffe6cc;strokeColor=#d79b00;fontColor=#339999;" vertex="1" parent="WIyWlLk6GJQsqaUBKTNV-1">
          <mxGeometry x="520" y="-110" width="80" height="40" as="geometry" />
        </mxCell>
        <mxCell id="wz5FfJA9ymAUxzdKkV_o-57" value="否" style="edgeStyle=orthogonalEdgeStyle;rounded=0;orthogonalLoop=1;jettySize=auto;html=1;exitX=1;exitY=0.5;exitDx=0;exitDy=0;entryX=1;entryY=0.5;entryDx=0;entryDy=0;startArrow=none;startFill=0;endArrow=classic;endFill=1;fontSize=15;fontColor=#339999;" edge="1" parent="WIyWlLk6GJQsqaUBKTNV-1" source="wz5FfJA9ymAUxzdKkV_o-56" target="wz5FfJA9ymAUxzdKkV_o-52">
          <mxGeometry relative="1" as="geometry" />
        </mxCell>
        <mxCell id="wz5FfJA9ymAUxzdKkV_o-69" value="是" style="edgeStyle=orthogonalEdgeStyle;rounded=0;orthogonalLoop=1;jettySize=auto;html=1;exitX=0.5;exitY=1;exitDx=0;exitDy=0;entryX=0.5;entryY=0;entryDx=0;entryDy=0;startArrow=none;startFill=0;endArrow=classic;endFill=1;fontSize=15;fontColor=#339999;" edge="1" parent="WIyWlLk6GJQsqaUBKTNV-1" source="wz5FfJA9ymAUxzdKkV_o-56" target="wz5FfJA9ymAUxzdKkV_o-60">
          <mxGeometry relative="1" as="geometry" />
        </mxCell>
        <mxCell id="wz5FfJA9ymAUxzdKkV_o-56" value="验证通过" style="rhombus;whiteSpace=wrap;html=1;fontSize=15;fillColor=#f8cecc;strokeColor=#b85450;fontColor=#339999;" vertex="1" parent="WIyWlLk6GJQsqaUBKTNV-1">
          <mxGeometry x="520" y="-40" width="80" height="80" as="geometry" />
        </mxCell>
        <mxCell id="wz5FfJA9ymAUxzdKkV_o-68" value="否" style="edgeStyle=orthogonalEdgeStyle;rounded=0;orthogonalLoop=1;jettySize=auto;html=1;exitX=0.5;exitY=1;exitDx=0;exitDy=0;entryX=0.5;entryY=0;entryDx=0;entryDy=0;startArrow=none;startFill=0;endArrow=classic;endFill=1;fontSize=15;fontColor=#339999;" edge="1" parent="WIyWlLk6GJQsqaUBKTNV-1" source="wz5FfJA9ymAUxzdKkV_o-60" target="wz5FfJA9ymAUxzdKkV_o-64">
          <mxGeometry relative="1" as="geometry" />
        </mxCell>
        <mxCell id="wz5FfJA9ymAUxzdKkV_o-71" style="edgeStyle=orthogonalEdgeStyle;rounded=0;orthogonalLoop=1;jettySize=auto;html=1;exitX=1;exitY=0.5;exitDx=0;exitDy=0;entryX=1;entryY=0.5;entryDx=0;entryDy=0;startArrow=none;startFill=0;endArrow=classic;endFill=1;fontSize=15;" edge="1" parent="WIyWlLk6GJQsqaUBKTNV-1" source="wz5FfJA9ymAUxzdKkV_o-60" target="wz5FfJA9ymAUxzdKkV_o-66">
          <mxGeometry relative="1" as="geometry" />
        </mxCell>
        <mxCell id="wz5FfJA9ymAUxzdKkV_o-72" value="是" style="edgeLabel;html=1;align=center;verticalAlign=middle;resizable=0;points=[];fontSize=15;fontColor=#339999;" vertex="1" connectable="0" parent="wz5FfJA9ymAUxzdKkV_o-71">
          <mxGeometry x="-0.1861" y="-1" relative="1" as="geometry">
            <mxPoint as="offset" />
          </mxGeometry>
        </mxCell>
        <mxCell id="wz5FfJA9ymAUxzdKkV_o-60" value="任务是否面签完成" style="rhombus;whiteSpace=wrap;html=1;fontSize=15;fillColor=#f8cecc;strokeColor=#b85450;fontColor=#339999;" vertex="1" parent="WIyWlLk6GJQsqaUBKTNV-1">
          <mxGeometry x="520" y="70" width="80" height="80" as="geometry" />
        </mxCell>
        <mxCell id="wz5FfJA9ymAUxzdKkV_o-74" style="edgeStyle=orthogonalEdgeStyle;rounded=0;orthogonalLoop=1;jettySize=auto;html=1;exitX=0;exitY=0.5;exitDx=0;exitDy=0;startArrow=none;startFill=0;endArrow=classic;endFill=1;fontSize=15;" edge="1" parent="WIyWlLk6GJQsqaUBKTNV-1" source="wz5FfJA9ymAUxzdKkV_o-64">
          <mxGeometry relative="1" as="geometry">
            <mxPoint x="560" y="360" as="targetPoint" />
            <Array as="points">
              <mxPoint x="510" y="220" />
              <mxPoint x="510" y="330" />
              <mxPoint x="560" y="330" />
            </Array>
          </mxGeometry>
        </mxCell>
        <mxCell id="wz5FfJA9ymAUxzdKkV_o-64" value="人脸识别" style="rounded=0;whiteSpace=wrap;html=1;fontSize=15;fillColor=#ffe6cc;strokeColor=#d79b00;fontColor=#339999;" vertex="1" parent="WIyWlLk6GJQsqaUBKTNV-1">
          <mxGeometry x="520" y="200" width="80" height="40" as="geometry" />
        </mxCell>
        <mxCell id="wz5FfJA9ymAUxzdKkV_o-66" value="给出提示，流程结束" style="rounded=1;whiteSpace=wrap;html=1;fontSize=15;fillColor=#ffe6cc;strokeColor=#d79b00;fontColor=#339999;" vertex="1" parent="WIyWlLk6GJQsqaUBKTNV-1">
          <mxGeometry x="520" y="280" width="80" height="40" as="geometry" />
        </mxCell>
        <mxCell id="wz5FfJA9ymAUxzdKkV_o-82" style="edgeStyle=orthogonalEdgeStyle;rounded=0;orthogonalLoop=1;jettySize=auto;html=1;exitX=0.5;exitY=1;exitDx=0;exitDy=0;entryX=0.5;entryY=0;entryDx=0;entryDy=0;startArrow=none;startFill=0;endArrow=classic;endFill=1;fontSize=15;" edge="1" parent="WIyWlLk6GJQsqaUBKTNV-1" source="wz5FfJA9ymAUxzdKkV_o-75" target="wz5FfJA9ymAUxzdKkV_o-81">
          <mxGeometry relative="1" as="geometry" />
        </mxCell>
        <mxCell id="wz5FfJA9ymAUxzdKkV_o-75" value="等待页面" style="rounded=0;whiteSpace=wrap;html=1;fontSize=15;fillColor=#ffe6cc;strokeColor=#d79b00;fontColor=#339999;" vertex="1" parent="WIyWlLk6GJQsqaUBKTNV-1">
          <mxGeometry x="520" y="360" width="80" height="40" as="geometry" />
        </mxCell>
        <mxCell id="wz5FfJA9ymAUxzdKkV_o-80" style="edgeStyle=orthogonalEdgeStyle;rounded=0;orthogonalLoop=1;jettySize=auto;html=1;exitX=0;exitY=0.5;exitDx=0;exitDy=0;entryX=0;entryY=0.5;entryDx=0;entryDy=0;startArrow=none;startFill=0;endArrow=classic;endFill=1;fontSize=15;" edge="1" parent="WIyWlLk6GJQsqaUBKTNV-1" source="wz5FfJA9ymAUxzdKkV_o-76" target="wz5FfJA9ymAUxzdKkV_o-79">
          <mxGeometry relative="1" as="geometry" />
        </mxCell>
        <mxCell id="wz5FfJA9ymAUxzdKkV_o-76" value="提前维护问卷" style="rounded=0;whiteSpace=wrap;html=1;fontSize=15;fillColor=#ffe6cc;strokeColor=#d79b00;fontColor=#339999;" vertex="1" parent="WIyWlLk6GJQsqaUBKTNV-1">
          <mxGeometry x="185" y="60" width="100" height="40" as="geometry" />
        </mxCell>
        <mxCell id="wz5FfJA9ymAUxzdKkV_o-84" style="edgeStyle=orthogonalEdgeStyle;rounded=0;orthogonalLoop=1;jettySize=auto;html=1;exitX=0.5;exitY=1;exitDx=0;exitDy=0;startArrow=none;startFill=0;endArrow=classic;endFill=1;fontSize=15;" edge="1" parent="WIyWlLk6GJQsqaUBKTNV-1" source="wz5FfJA9ymAUxzdKkV_o-79">
          <mxGeometry relative="1" as="geometry">
            <mxPoint x="235" y="500" as="targetPoint" />
          </mxGeometry>
        </mxCell>
        <mxCell id="wz5FfJA9ymAUxzdKkV_o-79" value="进入视频房间" style="rounded=0;whiteSpace=wrap;html=1;fontSize=15;fillColor=#ffe6cc;strokeColor=#d79b00;fontColor=#339999;" vertex="1" parent="WIyWlLk6GJQsqaUBKTNV-1">
          <mxGeometry x="185" y="420" width="100" height="40" as="geometry" />
        </mxCell>
        <mxCell id="wz5FfJA9ymAUxzdKkV_o-81" value="进入视频房间" style="rounded=0;whiteSpace=wrap;html=1;fontSize=15;fillColor=#ffe6cc;strokeColor=#d79b00;fontColor=#339999;" vertex="1" parent="WIyWlLk6GJQsqaUBKTNV-1">
          <mxGeometry x="520" y="420" width="80" height="40" as="geometry" />
        </mxCell>
        <mxCell id="wz5FfJA9ymAUxzdKkV_o-87" style="edgeStyle=orthogonalEdgeStyle;rounded=0;orthogonalLoop=1;jettySize=auto;html=1;exitX=0.5;exitY=1;exitDx=0;exitDy=0;entryX=0.5;entryY=0;entryDx=0;entryDy=0;startArrow=none;startFill=0;endArrow=classic;endFill=1;fontSize=15;" edge="1" parent="WIyWlLk6GJQsqaUBKTNV-1" source="wz5FfJA9ymAUxzdKkV_o-85" target="wz5FfJA9ymAUxzdKkV_o-86">
          <mxGeometry relative="1" as="geometry" />
        </mxCell>
        <mxCell id="wz5FfJA9ymAUxzdKkV_o-85" value="维护问卷" style="rounded=0;whiteSpace=wrap;html=1;fontSize=15;fillColor=#ffe6cc;strokeColor=#d79b00;fontColor=#339999;" vertex="1" parent="WIyWlLk6GJQsqaUBKTNV-1">
          <mxGeometry x="185" y="500" width="100" height="40" as="geometry" />
        </mxCell>
        <mxCell id="wz5FfJA9ymAUxzdKkV_o-89" style="edgeStyle=orthogonalEdgeStyle;rounded=0;orthogonalLoop=1;jettySize=auto;html=1;exitX=0.5;exitY=1;exitDx=0;exitDy=0;entryX=0.5;entryY=0;entryDx=0;entryDy=0;startArrow=none;startFill=0;endArrow=classic;endFill=1;fontSize=15;" edge="1" parent="WIyWlLk6GJQsqaUBKTNV-1" source="wz5FfJA9ymAUxzdKkV_o-86" target="wz5FfJA9ymAUxzdKkV_o-88">
          <mxGeometry relative="1" as="geometry" />
        </mxCell>
        <mxCell id="wz5FfJA9ymAUxzdKkV_o-86" value="预览问卷" style="rounded=0;whiteSpace=wrap;html=1;fontSize=15;fillColor=#ffe6cc;strokeColor=#d79b00;fontColor=#339999;" vertex="1" parent="WIyWlLk6GJQsqaUBKTNV-1">
          <mxGeometry x="185" y="570" width="100" height="40" as="geometry" />
        </mxCell>
        <mxCell id="wz5FfJA9ymAUxzdKkV_o-91" value="给小程序发送问卷" style="edgeStyle=orthogonalEdgeStyle;rounded=0;orthogonalLoop=1;jettySize=auto;html=1;exitX=1;exitY=0.5;exitDx=0;exitDy=0;entryX=0;entryY=0.5;entryDx=0;entryDy=0;startArrow=none;startFill=0;endArrow=classic;endFill=1;fontSize=15;fontColor=#339999;" edge="1" parent="WIyWlLk6GJQsqaUBKTNV-1" source="wz5FfJA9ymAUxzdKkV_o-88" target="wz5FfJA9ymAUxzdKkV_o-90">
          <mxGeometry relative="1" as="geometry" />
        </mxCell>
        <mxCell id="wz5FfJA9ymAUxzdKkV_o-88" value="发起签名" style="rounded=0;whiteSpace=wrap;html=1;fontSize=15;fillColor=#ffe6cc;strokeColor=#d79b00;fontColor=#339999;" vertex="1" parent="WIyWlLk6GJQsqaUBKTNV-1">
          <mxGeometry x="185" y="640" width="100" height="40" as="geometry" />
        </mxCell>
        <mxCell id="wz5FfJA9ymAUxzdKkV_o-94" value="点击返回" style="edgeStyle=orthogonalEdgeStyle;rounded=0;orthogonalLoop=1;jettySize=auto;html=1;exitX=0.5;exitY=1;exitDx=0;exitDy=0;entryX=0.5;entryY=0;entryDx=0;entryDy=0;startArrow=none;startFill=0;endArrow=classic;endFill=1;fontSize=15;fontColor=#339999;" edge="1" parent="WIyWlLk6GJQsqaUBKTNV-1" source="wz5FfJA9ymAUxzdKkV_o-90" target="wz5FfJA9ymAUxzdKkV_o-93">
          <mxGeometry relative="1" as="geometry" />
        </mxCell>
        <mxCell id="wz5FfJA9ymAUxzdKkV_o-96" style="edgeStyle=orthogonalEdgeStyle;rounded=0;orthogonalLoop=1;jettySize=auto;html=1;exitX=1;exitY=0.5;exitDx=0;exitDy=0;entryX=1;entryY=0.5;entryDx=0;entryDy=0;startArrow=none;startFill=0;endArrow=classic;endFill=1;fontSize=15;" edge="1" parent="WIyWlLk6GJQsqaUBKTNV-1" source="wz5FfJA9ymAUxzdKkV_o-90" target="wz5FfJA9ymAUxzdKkV_o-95">
          <mxGeometry relative="1" as="geometry" />
        </mxCell>
        <mxCell id="wz5FfJA9ymAUxzdKkV_o-97" value="点击签名" style="edgeLabel;html=1;align=center;verticalAlign=middle;resizable=0;points=[];fontSize=15;fontColor=#339999;" vertex="1" connectable="0" parent="wz5FfJA9ymAUxzdKkV_o-96">
          <mxGeometry x="-0.1714" y="-1" relative="1" as="geometry">
            <mxPoint y="27" as="offset" />
          </mxGeometry>
        </mxCell>
        <mxCell id="wz5FfJA9ymAUxzdKkV_o-90" value="展示问卷以及签字区域" style="rounded=0;whiteSpace=wrap;html=1;fontSize=15;fillColor=#ffe6cc;strokeColor=#d79b00;fontColor=#339999;" vertex="1" parent="WIyWlLk6GJQsqaUBKTNV-1">
          <mxGeometry x="520" y="640" width="80" height="40" as="geometry" />
        </mxCell>
        <mxCell id="wz5FfJA9ymAUxzdKkV_o-100" style="edgeStyle=orthogonalEdgeStyle;rounded=0;orthogonalLoop=1;jettySize=auto;html=1;exitX=0.5;exitY=1;exitDx=0;exitDy=0;entryX=0.5;entryY=0;entryDx=0;entryDy=0;startArrow=none;startFill=0;endArrow=classic;endFill=1;fontSize=15;" edge="1" parent="WIyWlLk6GJQsqaUBKTNV-1" source="wz5FfJA9ymAUxzdKkV_o-93">
          <mxGeometry relative="1" as="geometry">
            <mxPoint x="560" y="830" as="targetPoint" />
          </mxGeometry>
        </mxCell>
        <mxCell id="wz5FfJA9ymAUxzdKkV_o-93" value="回到面签界面" style="rounded=0;whiteSpace=wrap;html=1;fontSize=15;fillColor=#ffe6cc;strokeColor=#d79b00;fontColor=#339999;" vertex="1" parent="WIyWlLk6GJQsqaUBKTNV-1">
          <mxGeometry x="520" y="740" width="80" height="40" as="geometry" />
        </mxCell>
        <mxCell id="wz5FfJA9ymAUxzdKkV_o-106" style="edgeStyle=orthogonalEdgeStyle;rounded=0;orthogonalLoop=1;jettySize=auto;html=1;exitX=0;exitY=0.5;exitDx=0;exitDy=0;entryX=1;entryY=0.5;entryDx=0;entryDy=0;startArrow=none;startFill=0;endArrow=classic;endFill=1;fontSize=15;" edge="1" parent="WIyWlLk6GJQsqaUBKTNV-1" source="wz5FfJA9ymAUxzdKkV_o-95" target="wz5FfJA9ymAUxzdKkV_o-105">
          <mxGeometry relative="1" as="geometry" />
        </mxCell>
        <mxCell id="wz5FfJA9ymAUxzdKkV_o-107" value="同步签名给PC端" style="edgeLabel;html=1;align=center;verticalAlign=middle;resizable=0;points=[];fontSize=15;fontColor=#339999;" vertex="1" connectable="0" parent="wz5FfJA9ymAUxzdKkV_o-106">
          <mxGeometry x="0.1932" y="2" relative="1" as="geometry">
            <mxPoint x="22.5" y="-2" as="offset" />
          </mxGeometry>
        </mxCell>
        <mxCell id="wz5FfJA9ymAUxzdKkV_o-95" value="客户进行电子签名" style="rounded=0;whiteSpace=wrap;html=1;fontSize=15;fillColor=#ffe6cc;strokeColor=#d79b00;fontColor=#339999;" vertex="1" parent="WIyWlLk6GJQsqaUBKTNV-1">
          <mxGeometry x="520" y="920" width="80" height="40" as="geometry" />
        </mxCell>
        <mxCell id="wz5FfJA9ymAUxzdKkV_o-102" style="edgeStyle=orthogonalEdgeStyle;rounded=0;orthogonalLoop=1;jettySize=auto;html=1;exitX=0;exitY=0.5;exitDx=0;exitDy=0;entryX=0;entryY=0.5;entryDx=0;entryDy=0;startArrow=none;startFill=0;endArrow=classic;endFill=1;fontSize=15;" edge="1" parent="WIyWlLk6GJQsqaUBKTNV-1" source="wz5FfJA9ymAUxzdKkV_o-101" target="wz5FfJA9ymAUxzdKkV_o-88">
          <mxGeometry relative="1" as="geometry" />
        </mxCell>
        <mxCell id="wz5FfJA9ymAUxzdKkV_o-103" value="沟通确认没有问题后" style="edgeLabel;html=1;align=center;verticalAlign=middle;resizable=0;points=[];fontSize=15;fontColor=#339999;" vertex="1" connectable="0" parent="wz5FfJA9ymAUxzdKkV_o-102">
          <mxGeometry x="-0.4329" y="3" relative="1" as="geometry">
            <mxPoint as="offset" />
          </mxGeometry>
        </mxCell>
        <mxCell id="wz5FfJA9ymAUxzdKkV_o-101" value="继续沟通" style="rounded=0;whiteSpace=wrap;html=1;fontSize=15;fillColor=#ffe6cc;strokeColor=#d79b00;fontColor=#339999;" vertex="1" parent="WIyWlLk6GJQsqaUBKTNV-1">
          <mxGeometry x="520" y="830" width="80" height="40" as="geometry" />
        </mxCell>
        <mxCell id="wz5FfJA9ymAUxzdKkV_o-108" style="edgeStyle=orthogonalEdgeStyle;rounded=0;orthogonalLoop=1;jettySize=auto;html=1;exitX=0.5;exitY=1;exitDx=0;exitDy=0;startArrow=none;startFill=0;endArrow=classic;endFill=1;fontSize=15;" edge="1" parent="WIyWlLk6GJQsqaUBKTNV-1" source="wz5FfJA9ymAUxzdKkV_o-105">
          <mxGeometry relative="1" as="geometry">
            <mxPoint x="235" y="1010" as="targetPoint" />
          </mxGeometry>
        </mxCell>
        <mxCell id="wz5FfJA9ymAUxzdKkV_o-105" value="界面展示签名" style="rounded=0;whiteSpace=wrap;html=1;fontSize=15;fillColor=#ffe6cc;strokeColor=#d79b00;fontColor=#339999;" vertex="1" parent="WIyWlLk6GJQsqaUBKTNV-1">
          <mxGeometry x="185" y="920" width="100" height="40" as="geometry" />
        </mxCell>
        <mxCell id="wz5FfJA9ymAUxzdKkV_o-113" style="edgeStyle=orthogonalEdgeStyle;rounded=0;orthogonalLoop=1;jettySize=auto;html=1;exitX=0.5;exitY=1;exitDx=0;exitDy=0;entryX=0.5;entryY=0;entryDx=0;entryDy=0;startArrow=none;startFill=0;endArrow=classic;endFill=1;fontSize=15;" edge="1" parent="WIyWlLk6GJQsqaUBKTNV-1" source="wz5FfJA9ymAUxzdKkV_o-109" target="wz5FfJA9ymAUxzdKkV_o-112">
          <mxGeometry relative="1" as="geometry" />
        </mxCell>
        <mxCell id="wz5FfJA9ymAUxzdKkV_o-109" value="结束面签" style="rounded=0;whiteSpace=wrap;html=1;fontSize=15;fillColor=#ffe6cc;strokeColor=#d79b00;fontColor=#339999;" vertex="1" parent="WIyWlLk6GJQsqaUBKTNV-1">
          <mxGeometry x="185" y="1010" width="100" height="40" as="geometry" />
        </mxCell>
        <mxCell id="wz5FfJA9ymAUxzdKkV_o-116" value="推送影像系统" style="edgeStyle=orthogonalEdgeStyle;rounded=0;orthogonalLoop=1;jettySize=auto;html=1;exitX=1;exitY=0.5;exitDx=0;exitDy=0;startArrow=none;startFill=0;endArrow=classic;endFill=1;fontSize=15;fontColor=#339999;" edge="1" parent="WIyWlLk6GJQsqaUBKTNV-1" source="wz5FfJA9ymAUxzdKkV_o-112">
          <mxGeometry relative="1" as="geometry">
            <mxPoint x="695" y="1120" as="targetPoint" />
          </mxGeometry>
        </mxCell>
        <mxCell id="wz5FfJA9ymAUxzdKkV_o-112" value="组装问卷PDF" style="rounded=0;whiteSpace=wrap;html=1;fontSize=15;fillColor=#ffe6cc;strokeColor=#d79b00;fontColor=#339999;" vertex="1" parent="WIyWlLk6GJQsqaUBKTNV-1">
          <mxGeometry x="185" y="1100" width="100" height="40" as="geometry" />
        </mxCell>
        <mxCell id="wz5FfJA9ymAUxzdKkV_o-135" style="edgeStyle=orthogonalEdgeStyle;rounded=0;orthogonalLoop=1;jettySize=auto;html=1;exitX=1;exitY=0.5;exitDx=0;exitDy=0;entryX=0;entryY=0.5;entryDx=0;entryDy=0;startArrow=none;startFill=0;endArrow=classic;endFill=1;fontSize=15;" edge="1" parent="WIyWlLk6GJQsqaUBKTNV-1" source="wz5FfJA9ymAUxzdKkV_o-117" target="wz5FfJA9ymAUxzdKkV_o-132">
          <mxGeometry relative="1" as="geometry" />
        </mxCell>
        <mxCell id="wz5FfJA9ymAUxzdKkV_o-117" value="核心撤销任务" style="rounded=0;whiteSpace=wrap;html=1;fontSize=15;fillColor=#ffe6cc;strokeColor=#d79b00;fontColor=#339999;" vertex="1" parent="WIyWlLk6GJQsqaUBKTNV-1">
          <mxGeometry x="20" y="1290" width="100" height="40" as="geometry" />
        </mxCell>
        <mxCell id="wz5FfJA9ymAUxzdKkV_o-121" value="接收PDF，流程结束" style="rounded=1;whiteSpace=wrap;html=1;fontSize=15;fillColor=#ffe6cc;strokeColor=#d79b00;fontColor=#339999;" vertex="1" parent="WIyWlLk6GJQsqaUBKTNV-1">
          <mxGeometry x="700" y="1100" width="85" height="40" as="geometry" />
        </mxCell>
        <mxCell id="wz5FfJA9ymAUxzdKkV_o-136" style="edgeStyle=orthogonalEdgeStyle;rounded=0;orthogonalLoop=1;jettySize=auto;html=1;exitX=1;exitY=0.5;exitDx=0;exitDy=0;entryX=0;entryY=0.5;entryDx=0;entryDy=0;startArrow=none;startFill=0;endArrow=classic;endFill=1;fontSize=15;" edge="1" parent="WIyWlLk6GJQsqaUBKTNV-1" source="wz5FfJA9ymAUxzdKkV_o-123" target="wz5FfJA9ymAUxzdKkV_o-132">
          <mxGeometry relative="1" as="geometry" />
        </mxCell>
        <mxCell id="wz5FfJA9ymAUxzdKkV_o-123" value="线下回销任务" style="rounded=0;whiteSpace=wrap;html=1;fontSize=15;fillColor=#ffe6cc;strokeColor=#d79b00;fontColor=#339999;" vertex="1" parent="WIyWlLk6GJQsqaUBKTNV-1">
          <mxGeometry x="20" y="1370" width="100" height="40" as="geometry" />
        </mxCell>
        <mxCell id="wz5FfJA9ymAUxzdKkV_o-132" value="查询任务" style="rounded=1;whiteSpace=wrap;html=1;fontSize=15;fillColor=#ffe6cc;strokeColor=#d79b00;fontColor=#339999;" vertex="1" parent="WIyWlLk6GJQsqaUBKTNV-1">
          <mxGeometry x="185" y="1330" width="100" height="40" as="geometry" />
        </mxCell>
        <mxCell id="wz5FfJA9ymAUxzdKkV_o-140" style="edgeStyle=orthogonalEdgeStyle;rounded=0;orthogonalLoop=1;jettySize=auto;html=1;entryX=0.5;entryY=0;entryDx=0;entryDy=0;startArrow=none;startFill=0;endArrow=classic;endFill=1;fontSize=15;" edge="1" parent="WIyWlLk6GJQsqaUBKTNV-1" source="wz5FfJA9ymAUxzdKkV_o-134">
          <mxGeometry relative="1" as="geometry">
            <mxPoint x="235" y="1680" as="targetPoint" />
          </mxGeometry>
        </mxCell>
        <mxCell id="wz5FfJA9ymAUxzdKkV_o-134" value="监管抽查" style="rounded=1;whiteSpace=wrap;html=1;fontSize=15;dashed=1;fillColor=#fff2cc;strokeColor=#d6b656;fontColor=#339999;" vertex="1" parent="WIyWlLk6GJQsqaUBKTNV-1">
          <mxGeometry x="185" y="1600" width="100" height="40" as="geometry" />
        </mxCell>
        <mxCell id="wz5FfJA9ymAUxzdKkV_o-139" value="影像&lt;br&gt;查询/下载" style="rounded=1;whiteSpace=wrap;html=1;fontSize=15;fillColor=#ffe6cc;strokeColor=#d79b00;fontColor=#339999;" vertex="1" parent="WIyWlLk6GJQsqaUBKTNV-1">
          <mxGeometry x="700" y="1780" width="85" height="40" as="geometry" />
        </mxCell>
        <mxCell id="wz5FfJA9ymAUxzdKkV_o-142" style="edgeStyle=orthogonalEdgeStyle;rounded=0;orthogonalLoop=1;jettySize=auto;html=1;exitX=0.5;exitY=1;exitDx=0;exitDy=0;startArrow=none;startFill=0;endArrow=classic;endFill=1;fontSize=15;" edge="1" parent="WIyWlLk6GJQsqaUBKTNV-1" source="wz5FfJA9ymAUxzdKkV_o-141">
          <mxGeometry relative="1" as="geometry">
            <mxPoint x="235" y="1760" as="targetPoint" />
          </mxGeometry>
        </mxCell>
        <mxCell id="wz5FfJA9ymAUxzdKkV_o-141" value="视频查看/下载" style="rounded=0;whiteSpace=wrap;html=1;fontSize=15;fillColor=#ffe6cc;strokeColor=#d79b00;labelBackgroundColor=none;fontColor=#339999;" vertex="1" parent="WIyWlLk6GJQsqaUBKTNV-1">
          <mxGeometry x="185" y="1680" width="100" height="40" as="geometry" />
        </mxCell>
        <mxCell id="wz5FfJA9ymAUxzdKkV_o-143" value="调阅云&lt;br&gt;查看/下载" style="rounded=0;whiteSpace=wrap;html=1;fontSize=15;fillColor=#ffe6cc;strokeColor=#d79b00;fontColor=#339999;" vertex="1" parent="WIyWlLk6GJQsqaUBKTNV-1">
          <mxGeometry x="185" y="1890" width="100" height="40" as="geometry" />
        </mxCell>
        <mxCell id="wz5FfJA9ymAUxzdKkV_o-147" value="否" style="edgeStyle=orthogonalEdgeStyle;rounded=0;orthogonalLoop=1;jettySize=auto;html=1;exitX=0.5;exitY=1;exitDx=0;exitDy=0;entryX=0.5;entryY=0;entryDx=0;entryDy=0;startArrow=none;startFill=0;endArrow=classic;endFill=1;fontSize=15;fontColor=#339999;" edge="1" parent="WIyWlLk6GJQsqaUBKTNV-1" source="wz5FfJA9ymAUxzdKkV_o-146" target="wz5FfJA9ymAUxzdKkV_o-143">
          <mxGeometry relative="1" as="geometry" />
        </mxCell>
        <mxCell id="wz5FfJA9ymAUxzdKkV_o-148" style="edgeStyle=orthogonalEdgeStyle;rounded=0;orthogonalLoop=1;jettySize=auto;html=1;exitX=1;exitY=0.5;exitDx=0;exitDy=0;entryX=0;entryY=0.5;entryDx=0;entryDy=0;startArrow=none;startFill=0;endArrow=classic;endFill=1;fontSize=15;" edge="1" parent="WIyWlLk6GJQsqaUBKTNV-1" source="wz5FfJA9ymAUxzdKkV_o-146" target="wz5FfJA9ymAUxzdKkV_o-139">
          <mxGeometry relative="1" as="geometry" />
        </mxCell>
        <mxCell id="wz5FfJA9ymAUxzdKkV_o-149" value="是" style="edgeLabel;html=1;align=center;verticalAlign=middle;resizable=0;points=[];fontSize=15;fontColor=#339999;" vertex="1" connectable="0" parent="wz5FfJA9ymAUxzdKkV_o-148">
          <mxGeometry x="-0.2151" relative="1" as="geometry">
            <mxPoint as="offset" />
          </mxGeometry>
        </mxCell>
        <mxCell id="wz5FfJA9ymAUxzdKkV_o-146" value="云上文件是否过期" style="rhombus;whiteSpace=wrap;html=1;fontSize=15;fillColor=#f8cecc;strokeColor=#b85450;fontColor=#339999;" vertex="1" parent="WIyWlLk6GJQsqaUBKTNV-1">
          <mxGeometry x="195" y="1760" width="80" height="80" as="geometry" />
        </mxCell>
        <mxCell id="wz5FfJA9ymAUxzdKkV_o-155" value="" style="endArrow=none;dashed=1;html=1;fontSize=15;" edge="1" parent="WIyWlLk6GJQsqaUBKTNV-1">
          <mxGeometry width="50" height="50" relative="1" as="geometry">
            <mxPoint y="1169" as="sourcePoint" />
            <mxPoint x="820" y="1169" as="targetPoint" />
          </mxGeometry>
        </mxCell>
        <mxCell id="wz5FfJA9ymAUxzdKkV_o-157" value="&lt;span style=&quot;font-size: 45px&quot;&gt;取消任务流程&lt;/span&gt;" style="text;html=1;strokeColor=none;fillColor=none;align=center;verticalAlign=middle;whiteSpace=wrap;rounded=0;dashed=1;fontSize=15;fontColor=#99CCCC;" vertex="1" parent="WIyWlLk6GJQsqaUBKTNV-1">
          <mxGeometry x="255" y="1180" width="280" height="90" as="geometry" />
        </mxCell>
        <mxCell id="wz5FfJA9ymAUxzdKkV_o-158" value="&lt;span style=&quot;font-size: 45px&quot;&gt;监管抽查流程&lt;/span&gt;" style="text;html=1;strokeColor=none;fillColor=none;align=center;verticalAlign=middle;whiteSpace=wrap;rounded=0;dashed=1;fontSize=15;fontColor=#99CCCC;" vertex="1" parent="WIyWlLk6GJQsqaUBKTNV-1">
          <mxGeometry x="260" y="1480" width="280" height="90" as="geometry" />
        </mxCell>
        <mxCell id="wz5FfJA9ymAUxzdKkV_o-159" value="&lt;span style=&quot;font-size: 45px&quot;&gt;核保任务流程&lt;/span&gt;" style="text;html=1;strokeColor=none;fillColor=none;align=center;verticalAlign=middle;whiteSpace=wrap;rounded=0;dashed=1;fontSize=15;fontColor=#99CCCC;" vertex="1" parent="WIyWlLk6GJQsqaUBKTNV-1">
          <mxGeometry x="270" y="-330" width="280" height="90" as="geometry" />
        </mxCell>
        <mxCell id="wz5FfJA9ymAUxzdKkV_o-171" value="" style="endArrow=none;dashed=1;html=1;fontSize=15;" edge="1" parent="WIyWlLk6GJQsqaUBKTNV-1">
          <mxGeometry width="50" height="50" relative="1" as="geometry">
            <mxPoint y="1450" as="sourcePoint" />
            <mxPoint x="820" y="1450" as="targetPoint" />
          </mxGeometry>
        </mxCell>
      </root>
    </mxGraphModel>
  </diagram>
</mxfile>
